REM DIRINDEX 1\5,1\2\6,1\2\7,1\3\8,1\3\9,1\4\10,1\4\11,1\4\12
REM DIRNAME cjc026,folder01,folder02,folder03,folder04,folder05,folder06,folder07,folder08,folder09,folder10,folder11
TITLE ""
FILE "EJE_DB3000_5th_3B_04.mp3" MP3
  TRACK 01 AUDIO
    TITLE "0:"
    INDEX 01 00:00:00
  TRACK 02 AUDIO
    TITLE "10:cjc026_08505"
    INDEX 01 00:00:08
  TRACK 03 AUDIO
    TITLE "0:"
    INDEX 01 00:01:19
  TRACK 04 AUDIO
    TITLE "11:cjc026_08506"
    INDEX 01 00:01:57
  TRACK 05 AUDIO
    TITLE "0:"
    INDEX 01 00:03:15
  TRACK 06 AUDIO
    TITLE "12:cjc026_08507"
    INDEX 01 00:03:53
  TRACK 07 AUDIO
    TITLE "0:"
    INDEX 01 00:04:67
  TRACK 08 AUDIO
    TITLE "10:cjc026_08508"
    INDEX 01 00:05:27
  TRACK 09 AUDIO
    TITLE "0:"
    INDEX 01 00:06:57
  TRACK 10 AUDIO
    TITLE "11:cjc026_08509"
    INDEX 01 00:07:17
  TRACK 11 AUDIO
    TITLE "0:"
    INDEX 01 00:08:50
  TRACK 12 AUDIO
    TITLE "12:cjc026_08510"
    INDEX 01 00:09:08
  TRACK 13 AUDIO
    TITLE "0:"
    INDEX 01 00:10:38
  TRACK 14 AUDIO
    TITLE "10:cjc026_08511"
    INDEX 01 00:10:73
  TRACK 15 AUDIO
    TITLE "0:"
    INDEX 01 00:12:34
  TRACK 16 AUDIO
    TITLE "11:cjc026_08512"
    INDEX 01 00:12:69
  TRACK 17 AUDIO
    TITLE "0:"
    INDEX 01 00:14:32
  TRACK 18 AUDIO
    TITLE "12:cjc026_08513"
    INDEX 01 00:14:67
  TRACK 19 AUDIO
    TITLE "0:"
    INDEX 01 00:16:31
  TRACK 20 AUDIO
    TITLE "10:cjc026_08514"
    INDEX 01 00:16:66
  TRACK 21 AUDIO
    TITLE "0:"
    INDEX 01 00:18:08
  TRACK 22 AUDIO
    TITLE "11:cjc026_08515"
    INDEX 01 00:18:45
  TRACK 23 AUDIO
    TITLE "0:"
    INDEX 01 00:19:54
  TRACK 24 AUDIO
    TITLE "12:cjc026_08516"
    INDEX 01 00:20:17
  TRACK 25 AUDIO
    TITLE "0:"
    INDEX 01 00:21:34
  TRACK 26 AUDIO
    TITLE "10:cjc026_08517"
    INDEX 01 00:21:72
  TRACK 27 AUDIO
    TITLE "0:"
    INDEX 01 00:23:13
  TRACK 28 AUDIO
    TITLE "11:cjc026_08518"
    INDEX 01 00:23:48
  TRACK 29 AUDIO
    TITLE "0:"
    INDEX 01 00:24:71
  TRACK 30 AUDIO
    TITLE "12:cjc026_08519"
    INDEX 01 00:25:33
  TRACK 31 AUDIO
    TITLE "0:"
    INDEX 01 00:26:50
  TRACK 32 AUDIO
    TITLE "10:cjc026_08520"
    INDEX 01 00:27:13
  TRACK 33 AUDIO
    TITLE "0:"
    INDEX 01 00:28:35
  TRACK 34 AUDIO
    TITLE "11:cjc026_08521"
    INDEX 01 00:28:70
  TRACK 35 AUDIO
    TITLE "0:"
    INDEX 01 00:30:28
  TRACK 36 AUDIO
    TITLE "12:cjc026_08522"
    INDEX 01 00:30:66
  TRACK 37 AUDIO
    TITLE "0:"
    INDEX 01 00:32:13
  TRACK 38 AUDIO
    TITLE "10:cjc026_08523"
    INDEX 01 00:32:51
  TRACK 39 AUDIO
    TITLE "0:"
    INDEX 01 00:33:65
  TRACK 40 AUDIO
    TITLE "11:cjc026_08524"
    INDEX 01 00:34:28
  TRACK 41 AUDIO
    TITLE "0:"
    INDEX 01 00:35:56
  TRACK 42 AUDIO
    TITLE "12:cjc026_08525"
    INDEX 01 00:36:16
  TRACK 43 AUDIO
    TITLE "0:"
    INDEX 01 00:37:30
  TRACK 44 AUDIO
    TITLE "10:cjc026_08526"
    INDEX 01 00:37:68
  TRACK 45 AUDIO
    TITLE "0:"
    INDEX 01 00:39:26
  TRACK 46 AUDIO
    TITLE "11:cjc026_08527"
    INDEX 01 00:39:61
  TRACK 47 AUDIO
    TITLE "0:"
    INDEX 01 00:40:69
  TRACK 48 AUDIO
    TITLE "12:cjc026_08528"
    INDEX 01 00:41:32
  TRACK 49 AUDIO
    TITLE "0:"
    INDEX 01 00:42:65
  TRACK 50 AUDIO
    TITLE "10:cjc026_08529"
    INDEX 01 00:43:25
  TRACK 51 AUDIO
    TITLE "0:"
    INDEX 01 00:44:53
  TRACK 52 AUDIO
    TITLE "11:cjc026_08530"
    INDEX 01 00:45:13
  TRACK 53 AUDIO
    TITLE "0:"
    INDEX 01 00:46:46
  TRACK 54 AUDIO
    TITLE "12:cjc026_08531"
    INDEX 01 00:47:06
  TRACK 55 AUDIO
    TITLE "0:"
    INDEX 01 00:48:36
  TRACK 56 AUDIO
    TITLE "10:cjc026_08532"
    INDEX 01 00:48:72
  TRACK 57 AUDIO
    TITLE "0:"
    INDEX 01 00:50:21
  TRACK 58 AUDIO
    TITLE "11:cjc026_08533"
    INDEX 01 00:50:57
  TRACK 59 AUDIO
    TITLE "0:"
    INDEX 01 00:52:28
  TRACK 60 AUDIO
    TITLE "12:cjc026_08534"
    INDEX 01 00:52:63
  TRACK 61 AUDIO
    TITLE "0:"
    INDEX 01 00:54:16
  TRACK 62 AUDIO
    TITLE "10:cjc026_08535"
    INDEX 01 00:54:51
  TRACK 63 AUDIO
    TITLE "0:"
    INDEX 01 00:55:68
  TRACK 64 AUDIO
    TITLE "11:cjc026_08536"
    INDEX 01 00:56:28
  TRACK 65 AUDIO
    TITLE "0:"
    INDEX 01 00:57:47
  TRACK 66 AUDIO
    TITLE "12:cjc026_08537"
    INDEX 01 00:58:07
  TRACK 67 AUDIO
    TITLE "0:"
    INDEX 01 00:59:24
  TRACK 68 AUDIO
    TITLE "10:cjc026_08538"
    INDEX 01 00:59:59
  TRACK 69 AUDIO
    TITLE "0:"
    INDEX 01 01:01:15
  TRACK 70 AUDIO
    TITLE "11:cjc026_08539"
    INDEX 01 01:01:50
  TRACK 71 AUDIO
    TITLE "0:"
    INDEX 01 01:03:05
  TRACK 72 AUDIO
    TITLE "12:cjc026_08540"
    INDEX 01 01:03:40
  TRACK 73 AUDIO
    TITLE "0:"
    INDEX 01 01:04:70
  TRACK 74 AUDIO
    TITLE "10:cjc026_08541"
    INDEX 01 01:05:33
  TRACK 75 AUDIO
    TITLE "0:"
    INDEX 01 01:06:58
  TRACK 76 AUDIO
    TITLE "11:cjc026_08542"
    INDEX 01 01:07:15
  TRACK 77 AUDIO
    TITLE "0:"
    INDEX 01 01:08:24
  TRACK 78 AUDIO
    TITLE "12:cjc026_08543"
    INDEX 01 01:08:59
  TRACK 79 AUDIO
    TITLE "0:"
    INDEX 01 01:10:09
